<?xml version="1.0" encoding="UTF-8" standalone="no"?>
<!-- Created with Inkscape (http://www.inkscape.org/) -->

<svg
   xmlns:dc="http://purl.org/dc/elements/1.1/"
   xmlns:cc="http://creativecommons.org/ns#"
   xmlns:rdf="http://www.w3.org/1999/02/22-rdf-syntax-ns#"
   xmlns:svg="http://www.w3.org/2000/svg"
   xmlns="http://www.w3.org/2000/svg"
   xmlns:xlink="http://www.w3.org/1999/xlink"
   xmlns:sodipodi="http://sodipodi.sourceforge.net/DTD/sodipodi-0.dtd"
   xmlns:inkscape="http://www.inkscape.org/namespaces/inkscape"
   version="1.0"
   width="65"
   height="83"
   id="svg2"
   sodipodi:version="0.32"
   inkscape:version="0.48.2 r9819"
   sodipodi:docname="lechuza.svg"
   inkscape:output_extension="org.inkscape.output.svg.inkscape">
  <metadata
     id="metadata2492">
    <rdf:RDF>
      <cc:Work
         rdf:about="">
        <dc:format>image/svg+xml</dc:format>
        <dc:type
           rdf:resource="http://purl.org/dc/dcmitype/StillImage" />
        <dc:title></dc:title>
      </cc:Work>
    </rdf:RDF>
  </metadata>
  <sodipodi:namedview
     inkscape:window-height="706"
     inkscape:window-width="1366"
     inkscape:pageshadow="2"
     inkscape:pageopacity="0.0"
     guidetolerance="10.0"
     gridtolerance="10.0"
     objecttolerance="10.0"
     borderopacity="1.0"
     bordercolor="#666666"
     pagecolor="#ffffff"
     id="base"
     showgrid="false"
     inkscape:zoom="5.6568542"
     inkscape:cx="-22.379941"
     inkscape:cy="56.836535"
     inkscape:window-x="-8"
     inkscape:window-y="-8"
     inkscape:current-layer="svg2"
     inkscape:window-maximized="1"
     showguides="false"
     inkscape:guide-bbox="true">
    <sodipodi:guide
       orientation="1,0"
       position="-56.74532,60.634407"
       id="guide3857" />
  </sodipodi:namedview>
  <defs
     id="defs4">
    <inkscape:perspective
       sodipodi:type="inkscape:persp3d"
       inkscape:vp_x="0 : 127.13264 : 1"
       inkscape:vp_y="0 : 1000 : 0"
       inkscape:vp_z="224.65625 : 127.13264 : 1"
       inkscape:persp3d-origin="112.32812 : 84.755096 : 1"
       id="perspective2494" />
    <linearGradient
       gradientUnits="userSpaceOnUse"
       y2="16.656706"
       x2="-785.38751"
       y1="16.878105"
       x1="-776.61304"
       id="linearGradient3825"
       xlink:href="#linearGradient3819"
       inkscape:collect="always" />
    <radialGradient
       gradientUnits="userSpaceOnUse"
       gradientTransform="matrix(0.517926,2.44435e-8,-3.92128e-8,0.448932,-208.632,-91.5228)"
       r="100.02526"
       fy="-155.89888"
       fx="-411.91803"
       cy="-155.89888"
       cx="-411.91803"
       id="radialGradient3793"
       xlink:href="#linearGradient3787"
       inkscape:collect="always" />
    <radialGradient
       gradientUnits="userSpaceOnUse"
       gradientTransform="matrix(0.212104,-0.443078,1.01022,0.483598,-531.228,-450.26)"
       r="115.36326"
       fy="-94.644592"
       fx="-813.12628"
       cy="-94.644592"
       cx="-813.12628"
       id="radialGradient3783"
       xlink:href="#linearGradient3777"
       inkscape:collect="always" />
    <inkscape:perspective
       id="perspective2915"
       inkscape:persp3d-origin="372.04724 : 350.78739 : 1"
       inkscape:vp_z="744.09448 : 526.18109 : 1"
       inkscape:vp_y="0 : 1000 : 0"
       inkscape:vp_x="0 : 526.18109 : 1"
       sodipodi:type="inkscape:persp3d" />
    <linearGradient
       id="linearGradient3777"
       inkscape:collect="always">
      <stop
         id="stop3779"
         offset="0"
         style="stop-color:#e9c6af;stop-opacity:1" />
      <stop
         id="stop3781"
         offset="1"
         style="stop-color:#ffb380;stop-opacity:0;" />
    </linearGradient>
    <linearGradient
       id="linearGradient3787"
       inkscape:collect="always">
      <stop
         id="stop3789"
         offset="0"
         style="stop-color:#e9c6af;stop-opacity:1;" />
      <stop
         id="stop3791"
         offset="1"
         style="stop-color:#e9c6af;stop-opacity:0;" />
    </linearGradient>
    <linearGradient
       id="linearGradient3805">
      <stop
         id="stop3807"
         offset="0"
         style="stop-color:#ffffff;stop-opacity:1;" />
      <stop
         id="stop3809"
         offset="1"
         style="stop-color:#000000;stop-opacity:1" />
    </linearGradient>
    <linearGradient
       id="linearGradient3819"
       inkscape:collect="always">
      <stop
         id="stop3821"
         offset="0"
         style="stop-color:#ffffff;stop-opacity:1;" />
      <stop
         id="stop3823"
         offset="1"
         style="stop-color:#ffffff;stop-opacity:0;" />
    </linearGradient>
    <inkscape:perspective
       id="perspective2791"
       inkscape:persp3d-origin="372.04724 : 350.78739 : 1"
       inkscape:vp_z="744.09448 : 526.18109 : 1"
       inkscape:vp_y="0 : 1000 : 0"
       inkscape:vp_x="0 : 526.18109 : 1"
       sodipodi:type="inkscape:persp3d" />
    <linearGradient
       y2="501.29077"
       x2="320.22107"
       y1="215.21931"
       x1="-60.221073"
       gradientUnits="userSpaceOnUse"
       id="linearGradient3222"
       xlink:href="#linearGradient3161"
       inkscape:collect="always" />
    <linearGradient
       y2="537.005"
       x2="393.21429"
       y1="180.93361"
       x1="-133.21428"
       gradientUnits="userSpaceOnUse"
       id="linearGradient3220"
       xlink:href="#linearGradient3169"
       inkscape:collect="always" />
    <linearGradient
       y2="602.7193"
       x2="393.21429"
       y1="544.86218"
       x1="-133.21428"
       gradientTransform="matrix(1.17318,0,0,1.22714,-28.2282,-58.9006)"
       gradientUnits="userSpaceOnUse"
       id="linearGradient3218"
       xlink:href="#linearGradient3169"
       inkscape:collect="always" />
    <linearGradient
       id="linearGradient3161">
      <stop
         id="stop3163"
         offset="0"
         style="stop-color: rgb(0, 190, 255); stop-opacity: 1;" />
      <stop
         id="stop3165"
         offset="1"
         style="stop-color: rgb(0, 116, 255); stop-opacity: 1;" />
    </linearGradient>
    <linearGradient
       id="linearGradient3169">
      <stop
         id="stop3171"
         offset="0"
         style="stop-color: rgb(212, 212, 212); stop-opacity: 1;" />
      <stop
         id="stop3173"
         offset="1"
         style="stop-color: rgb(159, 150, 150); stop-opacity: 1;" />
    </linearGradient>
    <linearGradient
       id="linearGradient3274">
      <stop
         id="stop3276"
         offset="0"
         style="stop-color: rgb(255, 0, 0); stop-opacity: 1;" />
      <stop
         id="stop3278"
         offset="1"
         style="stop-color: rgb(255, 98, 98); stop-opacity: 1;" />
    </linearGradient>
    <inkscape:perspective
       id="perspective32"
       inkscape:persp3d-origin="372.04724 : 350.78739 : 1"
       inkscape:vp_z="744.09448 : 526.18109 : 1"
       inkscape:vp_y="0 : 1000 : 0"
       inkscape:vp_x="0 : 526.18109 : 1"
       sodipodi:type="inkscape:persp3d" />
  </defs>
  <rect
     style="fill:none;fill-opacity:1;stroke:none"
     id="rect3043"
     width="80"
     height="80"
     x="-73.492149"
     y="3.8369355"
     inkscape:export-filename="D:\Tesis\Web\web\images\luchuza.png"
     inkscape:export-xdpi="90"
     inkscape:export-ydpi="90" />
  <g
     inkscape:label="Layer 1"
     id="g2927"
     transform="translate(-374.999,-250.2864)" />
  <g
     id="g3824"
     transform="translate(-65.674101,0.01662131)"
     inkscape:export-filename="D:\Tesis\Web\web\images\luchuza.png"
     inkscape:export-xdpi="90"
     inkscape:export-ydpi="90">
    <path
       sodipodi:nodetypes="ccc"
       inkscape:connector-curvature="0"
       id="path4033"
       d="M 17.8125,14.562499 C 16.612521,13.828216 15.543263,11.152013 15.125,8.1249993 18.920025,11.590831 21.380859,10.327388 22.9375,9.812499"
       style="fill:#afdde9;fill-opacity:1;stroke:#000000;stroke-width:0.63300002;stroke-linecap:butt;stroke-linejoin:miter;stroke-miterlimit:4;stroke-opacity:1;stroke-dasharray:none" />
    <path
       sodipodi:nodetypes="ccc"
       inkscape:connector-curvature="0"
       id="path4033-5"
       d="m 46.59375,14.687499 c 1.199979,-0.734283 2.269237,-3.410486 2.6875,-6.4374997 -3.795025,3.4658317 -6.255859,2.2023887 -7.8125,1.6874995"
       style="fill:#afdde9;fill-opacity:1;stroke:#000000;stroke-width:0.63300002;stroke-linecap:butt;stroke-linejoin:miter;stroke-miterlimit:4;stroke-opacity:1;stroke-dasharray:none" />
    <path
       sodipodi:nodetypes="ccscscsccc"
       inkscape:connector-curvature="0"
       id="path3861"
       d="m 25.614882,68.395546 -0.0053,5.701555 c 0,0 -3.509312,1.90712 -2.284669,4.206229 0.730175,1.37081 2.485198,-0.911752 2.485198,-0.911752 0,0 -0.823446,2.589578 0.881874,2.772147 2.028773,0.217199 1.559387,-2.666707 1.559387,-2.666707 0,0 1.450562,2.453621 2.659414,1.037164 1.681521,-1.970299 -2.271706,-4.149751 -2.271706,-4.149751 l 0.06603,-5.843052 z"
       style="fill:#ff7400;fill-opacity:1;stroke:#000000;stroke-width:1.15189517px;stroke-linecap:butt;stroke-linejoin:miter;stroke-opacity:1" />
    <path
       sodipodi:nodetypes="ccscscsccc"
       inkscape:connector-curvature="0"
       id="path3861-4"
       d="m 35.668481,68.23507 -0.0053,5.701555 c 0,0 -3.509312,1.90712 -2.284669,4.206229 0.730175,1.37081 2.485198,-0.911752 2.485198,-0.911752 0,0 -0.823446,2.589578 0.881874,2.772147 2.028773,0.217199 1.559387,-2.666707 1.559387,-2.666707 0,0 1.450562,2.453621 2.659414,1.037164 1.681521,-1.970299 -2.271706,-4.149751 -2.271706,-4.149751 l 0.06603,-5.843052 z"
       style="fill:#ff7400;fill-opacity:1;stroke:#000000;stroke-width:1.15189517px;stroke-linecap:butt;stroke-linejoin:miter;stroke-opacity:1" />
    <path
       style="fill:#afdde9;fill-opacity:1;fill-rule:nonzero;stroke:#000000;stroke-width:0.83687013;stroke-linecap:round;stroke-linejoin:round;stroke-miterlimit:4;stroke-opacity:1;stroke-dasharray:none"
       id="path3885"
       d="m 52.485152,46.293449 c 0.0034,14.134631 -9.187024,25.595249 -20.525134,25.595249 -11.338108,0 -20.528512,-11.460618 -20.525133,-25.595249 -0.0034,-14.134631 9.187025,-25.595248 20.525133,-25.595248 11.33811,0 20.528512,11.460617 20.525134,25.595248 z"
       inkscape:connector-curvature="0" />
    <path
       style="fill:#000000;fill-opacity:0.31372549;fill-rule:nonzero;stroke:none"
       id="path3887"
       d="m 51.244261,37.514616 c 0.01439,0.392822 0.02342,0.792668 0.02342,1.189892 0,14.124366 -9.194229,25.586335 -20.524104,25.586335 -8.856044,0 -16.412949,-7.007784 -19.288558,-16.811791 0.497218,13.57492 9.495288,24.403743 20.506537,24.403743 11.329875,0 20.524103,-11.46197 20.524103,-25.586335 0,-3.084009 -0.438126,-6.0432 -1.241401,-8.781844 z"
       inkscape:connector-curvature="0" />
    <g
       transform="translate(0,-1.25)"
       id="g4075">
      <path
         style="fill:#87cdde;fill-opacity:1;stroke:#000000;stroke-width:0.98651463px;stroke-linecap:butt;stroke-linejoin:miter;stroke-opacity:1"
         d="M 8.375,49.875 C 8.350096,43.659872 9.5037632,32.73654 15.552432,32.75 c 6.21374,0.01383 7.22185,11.240697 7.299084,17.625 0.125587,10.381245 -6.812478,17.75 -6.812478,17.75 0,0 -7.618717,-6.939894 -7.664038,-18.25 z"
         id="path3919"
         inkscape:connector-curvature="0"
         sodipodi:nodetypes="ssscs" />
      <path
         style="fill:#000000;fill-opacity:0.25668449;stroke:none"
         d="m 9.1874999,56 c 1.7702731,2.146674 3.7829811,5.554695 6.7500001,7.1875 3.863497,-3.401871 6.230316,-8.44517 7.375001,-16.8125 -1.127845,5.554222 2.784526,5.128528 -7.250001,21.25 C 12.254687,64.88711 11.161911,60.112942 9.1874999,56 z"
         id="path3950-4"
         inkscape:connector-curvature="0"
         sodipodi:nodetypes="ccccc" />
    </g>
    <path
       sodipodi:nodetypes="ccsscssc"
       d="m 49.016097,18.671719 -0.406939,0.619335 c 0.05401,0.717083 0.07461,1.446216 0.07461,2.185889 0,10.532949 -10.50369,19.274561 -17.762882,18.12854 -6.04455,-0.95426 -13.260071,-4.584635 -16.508153,-12.241214 1.65289,9.383881 12.408536,16.33842 17.552629,16.284049 C 43.370088,43.529035 49.72824,35.4563 49.72824,24.92336 c 0,-2.189747 -0.233395,-4.292563 -0.712143,-6.251641 z"
       id="path4022"
       style="fill:#000000;fill-opacity:0.31372549;fill-rule:nonzero;stroke:none"
       inkscape:connector-curvature="0" />
    <path
       sodipodi:nodetypes="ssscs"
       inkscape:connector-curvature="0"
       id="path3919-9"
       d="m 55.988903,48.625 c 0.0249,-6.215128 -1.128763,-17.13846 -7.177432,-17.125 -6.21374,0.01383 -7.22185,11.240697 -7.299084,17.625 -0.125587,10.381245 6.812478,17.75 6.812478,17.75 0,0 7.618717,-6.939894 7.664038,-18.25 z"
       style="fill:#87cdde;fill-opacity:1;stroke:#000000;stroke-width:0.98651463px;stroke-linecap:butt;stroke-linejoin:miter;stroke-opacity:1" />
    <path
       d="m 49.521591,24.550685 c 0.0028,9.578439 -7.761203,17.344811 -17.339643,17.344811 -9.578438,0 -17.342494,-7.766372 -17.33964,-17.344811 -0.0029,-9.578438 7.761202,-17.34481 17.33964,-17.34481 9.57844,0 17.342497,7.766372 17.339643,17.34481 z"
       id="path3984"
       style="fill:#afdde9;fill-opacity:1;fill-rule:nonzero;stroke:#000000;stroke-width:0.63319904;stroke-linecap:round;stroke-linejoin:round;stroke-miterlimit:4;stroke-opacity:1;stroke-dasharray:none"
       inkscape:connector-curvature="0" />
    <path
       sodipodi:nodetypes="cccc"
       id="path4088"
       d="m 27.809835,27.694431 4.643811,8.580337 4.243235,-8.117254 C 34.91672,24.651197 30.033228,24.436549 27.809835,27.694431 z"
       style="fill:#ffce00;fill-opacity:1;fill-rule:evenodd;stroke:#000000;stroke-width:0.58135432;stroke-linecap:round;stroke-linejoin:round;stroke-miterlimit:4;stroke-opacity:1;stroke-dasharray:none"
       inkscape:connector-curvature="0" />
    <path
       sodipodi:nodetypes="ccccc"
       inkscape:connector-curvature="0"
       id="path3950"
       d="m 41.75,55.75 c 1.770273,2.146674 3.782981,5.554695 6.75,7.1875 3.863497,-3.401871 6.230316,-8.44517 7.375001,-16.8125 -1.127845,5.554222 2.784526,5.128528 -7.250001,21.25 C 44.817187,64.63711 43.724411,59.862942 41.75,55.75 z"
       style="fill:#000000;fill-opacity:0.25668449;stroke:none" />
    <path
       inkscape:connector-curvature="0"
       id="path3970"
       d="M 24.25,48.5 27.125,49.125 25.25,52 z"
       style="fill:#87cdde;fill-opacity:1;stroke:#87cdde;stroke-width:1px;stroke-linecap:butt;stroke-linejoin:miter;stroke-opacity:1" />
    <path
       inkscape:connector-curvature="0"
       id="path3970-8"
       d="m 30.377088,50.226773 2.934525,-0.211701 -0.987498,3.287263 z"
       style="fill:#87cdde;fill-opacity:1;stroke:#87cdde;stroke-width:1px;stroke-linecap:butt;stroke-linejoin:miter;stroke-opacity:1" />
    <path
       inkscape:connector-curvature="0"
       id="path3970-82"
       d="m 39.4375,48.375 -2.875,0.625 1.875,2.875 z"
       style="fill:#87cdde;fill-opacity:1;stroke:#87cdde;stroke-width:1px;stroke-linecap:butt;stroke-linejoin:miter;stroke-opacity:1" />
    <path
       inkscape:connector-curvature="0"
       id="path3970-4"
       d="m 26.8125,55.375 2.875,0.625 -1.875,2.875 z"
       style="fill:#87cdde;fill-opacity:1;stroke:#87cdde;stroke-width:1px;stroke-linecap:butt;stroke-linejoin:miter;stroke-opacity:1" />
    <path
       inkscape:connector-curvature="0"
       id="path3970-82-5"
       d="m 37.1875,54.75 -2.875,0.625 1.875,2.875 z"
       style="fill:#87cdde;fill-opacity:1;stroke:#87cdde;stroke-width:1px;stroke-linecap:butt;stroke-linejoin:miter;stroke-opacity:1" />
    <path
       sodipodi:nodetypes="ccccccc"
       inkscape:connector-curvature="0"
       id="path4053"
       d="m 17.5625,13.515624 c -0.06399,0.881962 1.203288,1.232247 1.421875,1.375 l 3.6875,-1.21875 2.234375,-3.703125 -4.6875,0.890625 -2.65625,3 z"
       style="fill:#afdde9;fill-opacity:1;stroke:none" />
    <path
       sodipodi:nodetypes="ccccccc"
       inkscape:connector-curvature="0"
       id="path4053-1"
       d="m 46.795705,13.617187 c 0.06399,0.881962 -1.203288,1.232247 -1.421875,1.375 l -3.6875,-1.21875 -2.234375,-3.703125 4.6875,0.890625 2.65625,3 z"
       style="fill:#afdde9;fill-opacity:1;stroke:none" />
    <path
       sodipodi:nodetypes="cccc"
       inkscape:connector-curvature="0"
       id="path4073"
       d="m 24.196923,12.012714 c 2.007686,-0.623519 6.055088,-1.055309 8.236135,2.058669 1.6917,-2.416318 5.989752,-2.731327 7.897748,-2.107123 -2.967429,-3.8595864 -11.49308,-4.9115028 -16.133883,0.04845 z"
       style="fill:#87cdde;fill-opacity:1;stroke:none" />
    <g
       transform="matrix(1.2894288,0,0,1.2894288,-8.229348,-4.81347)"
       id="g3853">
      <path
         sodipodi:type="arc"
         style="fill:#ffffff;fill-opacity:1;stroke:#ffffff;stroke-width:0.97899997;stroke-linecap:round;stroke-linejoin:round;stroke-miterlimit:4;stroke-opacity:1;stroke-dasharray:none;stroke-dashoffset:0"
         id="path3065"
         sodipodi:cx="25.013903"
         sodipodi:cy="49.85437"
         sodipodi:rx="6.805903"
         sodipodi:ry="6.805903"
         d="m 31.819806,49.85437 c 0,3.758797 -3.047107,6.805903 -6.805903,6.805903 -3.758797,0 -6.805903,-3.047106 -6.805903,-6.805903 0,-3.758796 3.047106,-6.805903 6.805903,-6.805903 3.758796,0 6.805903,3.047107 6.805903,6.805903 z"
         transform="translate(0.70710679,-28.195884)" />
      <path
         sodipodi:type="arc"
         style="fill:#ffffff;fill-opacity:1;stroke:#ffffff;stroke-width:0.97899997;stroke-linecap:round;stroke-linejoin:round;stroke-miterlimit:4;stroke-opacity:1;stroke-dasharray:none;stroke-dashoffset:0"
         id="path3065-1"
         sodipodi:cx="25.013903"
         sodipodi:cy="49.85437"
         sodipodi:rx="6.805903"
         sodipodi:ry="6.805903"
         d="m 31.819806,49.85437 c 0,3.758797 -3.047107,6.805903 -6.805903,6.805903 -3.758797,0 -6.805903,-3.047106 -6.805903,-6.805903 0,-3.758796 3.047106,-6.805903 6.805903,-6.805903 3.758796,0 6.805903,3.047107 6.805903,6.805903 z"
         transform="translate(12.053747,-28.195884)" />
    </g>
    <path
       inkscape:connector-curvature="0"
       d="m 43.342837,23.504541 c 9.73e-4,2.751657 -2.229607,4.982746 -4.981261,4.982746 -2.751658,0 -4.982083,-2.231089 -4.981265,-4.982746 -9.73e-4,-2.751655 2.229607,-4.982746 4.981265,-4.982746 2.751654,0 4.982082,2.231091 4.981261,4.982746 z"
       id="path4014"
       style="fill:#000000;fill-opacity:1;fill-rule:nonzero;stroke:#000000;stroke-width:0.87919706;stroke-linecap:round;stroke-linejoin:round;stroke-miterlimit:4;stroke-opacity:1;stroke-dasharray:none" />
    <path
       inkscape:connector-curvature="0"
       d="m 43.631689,20.950898 c 3.27e-4,1.096559 -0.888517,1.985671 -1.985078,1.985671 -1.096559,0 -1.985406,-0.889112 -1.985076,-1.985671 -3.3e-4,-1.09656 0.888517,-1.985669 1.985076,-1.985669 1.096561,0 1.985405,0.889109 1.985078,1.985669 z"
       id="path4016"
       style="fill:#ffffff;fill-opacity:1;fill-rule:nonzero;stroke:none" />
    <path
       inkscape:connector-curvature="0"
       d="m 30.404874,23.292497 c 9.74e-4,2.751656 -2.229609,4.982746 -4.981263,4.982746 -2.751657,0 -4.982083,-2.23109 -4.981264,-4.982746 -8.11e-4,-2.751655 2.229607,-4.982746 4.981264,-4.982746 2.751654,0 4.982081,2.231091 4.981263,4.982746 z"
       id="path4012"
       style="fill:#000000;fill-opacity:1;fill-rule:nonzero;stroke:#000000;stroke-width:0.87919706;stroke-linecap:round;stroke-linejoin:round;stroke-miterlimit:4;stroke-opacity:1;stroke-dasharray:none" />
    <path
       inkscape:connector-curvature="0"
       d="m 30.381514,20.738855 c 3.25e-4,1.096559 -0.888519,1.985671 -1.985078,1.985671 -1.09656,0 -1.985406,-0.889112 -1.985078,-1.985671 -3.28e-4,-1.09656 0.888518,-1.985669 1.985078,-1.985669 1.096559,0 1.985403,0.889109 1.985078,1.985669 z"
       id="path4018"
       style="fill:#ffffff;fill-opacity:1;fill-rule:nonzero;stroke:none" />
  </g>
</svg>
